<svg height="512" viewBox="0 0 512 512" width="512" xmlns="http://www.w3.org/2000/svg"><path d="m464 256c0 26.033-35.961 44.727-45.348 67.364-9.731 23.468 2.111 62.029-15.574 79.714s-56.247 5.843-79.714 15.574c-22.638 9.387-41.331 45.348-67.364 45.348s-44.727-35.961-67.364-45.348c-23.468-9.731-62.029 2.111-79.714-15.574s-5.843-56.247-15.574-79.714c-9.387-22.637-45.348-41.331-45.348-67.364s35.961-44.727 45.348-67.364c9.731-23.467-2.111-62.029 15.574-79.714s56.247-5.843 79.714-15.574c22.637-9.387 41.331-45.348 67.364-45.348s44.727 35.961 67.364 45.348c23.467 9.731 62.029-2.111 79.714 15.574s5.843 56.247 15.574 79.714c9.387 22.638 45.348 41.331 45.348 67.364z" fill="#fabe19"/><circle cx="256" cy="256" fill="#f5871e" r="144"/><circle cx="256" cy="256" fill="#faa032" r="112"/><g fill="#fabe19"><path d="m176.408 79.837a16 16 0 0 1 -14.788-9.881l-9.185-22.173a16 16 0 0 1 29.565-12.246l9.185 22.173a16.009 16.009 0 0 1 -14.776 22.127z"/><path d="m344.788 486.344a16 16 0 0 1 -14.788-9.881l-9.184-22.173a16 16 0 0 1 29.565-12.245l9.183 22.173a16.009 16.009 0 0 1 -14.776 22.126z"/><path d="m63.827 192.406a15.942 15.942 0 0 1 -6.117-1.222l-22.173-9.184a16 16 0 0 1 12.246-29.564l22.173 9.184a16 16 0 0 1 -6.129 30.786z"/><path d="m470.334 360.787a15.96 15.96 0 0 1 -6.117-1.222l-22.173-9.185a16 16 0 1 1 12.246-29.564l22.173 9.184a16 16 0 0 1 -6.129 30.786z"/><path d="m41.666 360.787a16 16 0 0 1 -6.129-30.787l22.173-9.185a16 16 0 1 1 12.246 29.565l-22.173 9.185a15.96 15.96 0 0 1 -6.117 1.222z"/><path d="m448.173 192.406a16 16 0 0 1 -6.129-30.786l22.173-9.184a16 16 0 0 1 12.246 29.564l-22.173 9.184a15.957 15.957 0 0 1 -6.117 1.222z"/><path d="m167.211 486.344a16.009 16.009 0 0 1 -14.776-22.127l9.185-22.173a16 16 0 1 1 29.564 12.246l-9.184 22.173a16 16 0 0 1 -14.789 9.881z"/><path d="m335.593 79.837a16.009 16.009 0 0 1 -14.777-22.126l9.184-22.174a16 16 0 0 1 29.564 12.246l-9.183 22.173a16 16 0 0 1 -14.788 9.881z"/></g></svg>